# xmcd
# 
# Track frame offsets:
#     160
#     20950
#     41252
#     57850
#     78560
#     93620
#     111517
#     125565
#     142705
#     157400
#     177070
#     191062
# 
# Disc length: 2772
# 
# Revision: 2
# Processed by: cddbd v1.5.2PL0 Copyright (c) Steve Scherf et al.
# Submitted via: BonkEnc v1.0.8
# 
DISCID=a90ad20c
DTITLE=Алёна Апина - Объяснение в любви
DYEAR=0
DGENRE=Pop
TTITLE0=Электричка
TTITLE1=Объяснение в любви
TTITLE2=Пароходик
TTITLE3=Разлука
TTITLE4=Нелюбимый
TTITLE5=Всё останется по-прежнему
TTITLE6=Романс
TTITLE7=Кольцо
TTITLE8=Не торопись
TTITLE9=Иди домой
TTITLE10=Между двух берегов
TTITLE11=Ты меня потерял
EXTD=
EXTT0=
EXTT1=
EXTT2=
EXTT3=
EXTT4=
EXTT5=
EXTT6=
EXTT7=
EXTT8=
EXTT9=
EXTT10=
EXTT11=
PLAYORDER=
